<?xml version="1.0"?>
<svg xmlns="http://www.w3.org/2000/svg" xmlns:xlink="http://www.w3.org/1999/xlink" xmlns:svgjs="http://svgjs.com/svgjs" version="1.1" width="512" height="512" x="0" y="0" viewBox="0 0 437.64778 437" style="enable-background:new 0 0 512 512" xml:space="preserve" class=""><g><path xmlns="http://www.w3.org/2000/svg" d="m97.710938 252.746094 154.710937-154.710938 31.160156 31.160156-154.710937 154.710938zm0 0" fill="#274d59" data-original="#274d59" style="" class=""/><path xmlns="http://www.w3.org/2000/svg" d="m113.289062 268.324219 154.710938-154.707031 15.578125 15.578124-154.710937 154.707032zm0 0" fill="#1b3c44" data-original="#1b3c44" style="" class=""/><path xmlns="http://www.w3.org/2000/svg" d="m425.378906 364.410156c-20.078125-20.078125-46.109375-28.113281-87.597656-63.71875-16.160156-13.800781-22.3125-36.035156-15.542969-56.179687 8.40625-24.847657 1.988281-52.316407-16.5625-70.863281l-33.269531-33.269532-66.167969 66.183594-66.183593 66.15625 33.269531 33.269531c18.546875 18.554688 46.011719 24.976563 70.863281 16.574219 20.140625-6.773438 42.375-.628906 56.179688 15.519531 35.601562 41.503907 43.640624 67.542969 63.722656 87.601563 16.695312 16.148437 43.117187 16.382812 60.097656.535156.300781-.28125.550781-.589844.839844-.882812.289062-.292969.601562-.542969.882812-.839844 15.839844-16.980469 15.605469-43.386719-.53125-60.085938zm-21.640625 39.652344c-6.15625 6.15625-16.136719 6.15625-22.292969 0-6.152343-6.15625-6.152343-16.136719 0-22.292969 6.15625-6.15625 16.136719-6.15625 22.292969 0 6.160157 6.15625 6.160157 16.136719 0 22.292969zm0 0" fill="#f9ad6a" data-original="#f9ad6a" style="" class=""/><g xmlns="http://www.w3.org/2000/svg" fill="#ea8c46"><path d="m273.59375 311.976562c1.167969 1.402344 2.398438 2.839844 3.507812 4.207032-13.339843-8.78125-29.980468-10.933594-45.113281-5.835938-24.847656 8.40625-52.316406 1.984375-70.863281-16.5625l-5.730469-5.730468 17.933594 17.933593c18.546875 18.550781 46.007813 24.976563 70.859375 16.574219 15.136719-5.097656 31.773438-2.941406 45.113281 5.835938-2.175781-2.679688-4.445312-5.410157-6.863281-8.230469-2.625-3.0625-5.59375-5.808594-8.84375-8.191407zm0 0" fill="#ea8c46" data-original="#ea8c46" style="" class=""/><path d="m275.535156 143.515625-3.140625-3.136719zm0 0" fill="#ea8c46" data-original="#ea8c46" style="" class=""/><path d="m425.378906 364.410156c-2.496094-2.460937-5.117187-4.792968-7.855468-6.992187 11.816406 16.914062 10.230468 39.777343-3.808594 54.894531-.28125.300781-.589844.550781-.882813.839844-.292969.289062-.542969.597656-.839843.882812-15.117188 14.039063-37.980469 15.625-54.890626 3.808594 2.195313 2.734375 4.527344 5.359375 6.992188 7.855469 16.695312 16.148437 43.117188 16.382812 60.097656.535156.300782-.28125.550782-.589844.839844-.882813.289062-.292968.601562-.542968.882812-.839843 15.847657-16.980469 15.613282-43.402344-.535156-60.101563zm0 0" fill="#ea8c46" data-original="#ea8c46" style="" class=""/><path d="m322.238281 244.511719c8.40625-24.847657 1.988281-52.316407-16.5625-70.863281l-12.195312-12.195313c18.546875 18.546875 24.964843 46.011719 16.558593 70.859375-5.097656 15.132812-2.945312 31.773438 5.835938 45.113281-1.371094-1.113281-2.800781-2.34375-4.207031-3.511719 2.375 3.253907 5.117187 6.222657 8.171875 8.851563 2.800781 2.398437 5.550781 4.6875 8.230468 6.863281-8.777343-13.34375-10.929687-29.980468-5.832031-45.117187zm0 0" fill="#ea8c46" data-original="#ea8c46" style="" class=""/></g><path xmlns="http://www.w3.org/2000/svg" d="m258.429688 154.347656-20.28125 20.28125h-62.308594l20.28125-20.28125zm-75.65625 75.660156 25.105468-25.109374h-62.320312l-25.109375 25.113281zm0 0" fill="#45988e" data-original="#45988e" style="" class=""/><path xmlns="http://www.w3.org/2000/svg" d="m182.773438 230.007812 25.105468-25.113281h-31.160156l-25.109375 25.113281zm0 0" fill="#348277" data-original="#348277" style="" class=""/><path xmlns="http://www.w3.org/2000/svg" d="m227.269531 154.347656-20.28125 20.28125h31.160157l20.28125-20.28125zm0 0" fill="#348277" data-original="#348277" style="" class=""/><path xmlns="http://www.w3.org/2000/svg" d="m140.058594 272.722656 132.34375-132.339844 19.488281 19.484376-132.34375 132.34375zm0 0" fill="#d36c4f" data-original="#d36c4f" style="" class=""/><path xmlns="http://www.w3.org/2000/svg" d="m140.054688 272.722656 132.34375-132.34375 9.742187 9.746094-132.339844 132.339844zm0 0" fill="#c1573e" data-original="#c1573e" style="" class=""/><path xmlns="http://www.w3.org/2000/svg" d="m104.585938 28.078125 36.445312 57.089844-57.085938-36.449219-40.015624 40.015625 20.230468 37.09375-37.09375-20.230469-27.066406 27.066406 108.894531 108.894532 132.339844-132.339844-108.894531-108.894531zm0 0" fill="#fff471" data-original="#fff471" style="" class=""/><path xmlns="http://www.w3.org/2000/svg" d="m96.199219 228.863281 132.34375-132.339843 12.695312 12.695312-132.339843 132.34375zm0 0" fill="#f7cb4f" data-original="#f7cb4f" style="" class=""/><path xmlns="http://www.w3.org/2000/svg" d="m100.285156 125.921875 9.902344-9.898437 62.121094 62.121093-9.902344 9.898438zm0 0" fill="#f7cb4f" data-original="#f7cb4f" style="" class=""/><path xmlns="http://www.w3.org/2000/svg" d="m144.878906 121.414062 9.898438-9.898437 42.082031 42.082031-9.898437 9.898438zm0 0" fill="#f7cb4f" data-original="#f7cb4f" style="" class=""/></g></svg>
