<svg id="Capa_1" enable-background="new 0 0 513.299 513.299" height="512" viewBox="0 0 513.299 513.299" width="512" xmlns="http://www.w3.org/2000/svg"><g><g><path d="m353.256 257.117c0 10.318-8.364 18.682-18.682 18.682s-18.682-8.364-18.682-18.682v-179.956h37.364z" fill="#f47c7c"/></g><path d="m254.214 324.531-.56-.51v-46.29h-52.6v45.93l-12 22-9 116 15 32 1.23 7.378c5.339 3.026 11.505 4.762 18.08 4.762h18.27c20.29 0 36.75-16.45 36.75-36.75v-110.73c0-12.91-5.52-25.21-15.17-33.79z" fill="#c9bfc8"/><path d="m180.328 114.984v74.141c0 10.082-8.173 18.256-18.256 18.256-10.082 0-18.256-8.173-18.256-18.256v-11.396c0-9.254-7.502-16.756-16.756-16.756-9.254 0-16.756 7.502-16.756 16.756v95.464c0 10.8-8.755 19.554-19.554 19.554-10.8 0-19.554-8.755-19.554-19.554v-175.388-36.644h109.357z" fill="#f47c7c"/><path d="m111.072 97.805h-46.431c-8.032 0-14.543-6.511-14.543-14.543v-44.039c0-8.032 6.511-14.543 14.543-14.543h46.431z" fill="#c9bfc8"/><path d="m377.364 78.742h50.837v39.993l-67.31 67.31h-121.744c-18.335 0-33.199 14.864-33.199 33.199v72.416h35v-64.243c0-3.519 2.853-6.372 6.372-6.372h116.246c7.625 0 14.794-2.969 20.183-8.36l71.082-71.082c5.36-5.36 8.371-12.629 8.371-20.208v-49.074c0-15.784-12.795-28.579-28.579-28.579h-57.258-84.735v37.418z" fill="#efedef"/><path d="m323.39 97.805h38.431c8.032 0 14.543-6.511 14.543-14.543v-44.039c0-8.032-6.511-14.543-14.543-14.543h-38.431z" fill="#c9bfc8"/><g id="XMLID_409_"><g><path d="m208.054 277.731h-14.71v46.29l-.56.51c-9.64 8.58-15.16 20.88-15.16 33.79v110.73c0 16.421 10.765 30.318 25.618 35.031-4.166-5.959-6.618-13.206-6.618-21.031v-110.73c0-11.114 4.091-21.777 11.38-30.002 2.484-2.803 3.933-6.372 4.155-10.111l.185-3.117c0-5.722 4.638-10.36 10.36-10.36h30.95v-27-14z" fill="#baafb9"/><path d="m269.794 255.661h-80.74v48.07h4.29 60.31 16.14c7.93 0 14.36-6.43 14.36-14.36v-19.35c0-7.93-6.43-14.36-14.36-14.36z" fill="#c9bfc8"/><path d="m192.854 289.371v-19.35c0-7.93 6.43-14.36 14.36-14.36h-30c-7.93 0-14.36 6.43-14.36 14.36v19.35c0 7.93 6.43 14.36 14.36 14.36h16.13 13.87c-7.93 0-14.36-6.43-14.36-14.36z" fill="#baafb9"/></g></g><path d="m90.751 395.779c-10.8 0-19.554-8.755-19.554-19.554v-23.892c0-10.8 8.755-19.554 19.554-19.554 10.8 0 19.554 8.755 19.554 19.554v23.892c.001 10.8-8.754 19.554-19.554 19.554z" fill="#ee6161"/><path d="m344.394 27.511c0-11.05-8.96-20.01-20.01-20.01h-221.33v85.206l1 .955 222-3 18-25-.141-.259.482.129v-38.021z" fill="#fee45a"/><path d="m113.054 91.661v-84.16h-10.98c-11.04 0-20 8.96-20 20.01v45.111l-.02.039 22 21 148-2z" fill="#fedf30"/><path d="m344.194 97.661c.118-.879.2-1.769.2-2.68v-29.45l-34.05-9.15c-7.2-1.94-14.58-2.9-21.95-2.9-10.06 0-20.1 1.8-29.64 5.37-17.17 6.43-35.97 7.11-53.56 1.92l-27.99-8.26c-19.19-5.66-39.78-4.33-58.08 3.76l-11.07 4.894v36.496z" fill="#f47c7c"/><path d="m113.054 58.954-30.98 13.696v22.33c0 11.046 8.954 20 20 20h222.32c11.046 0 20-8.954 20-20v-3.32h-198.634c-18.063.001-32.706-14.643-32.706-32.706z" fill="#ee6161"/><g><path d="m434.623 36.242h-50.965c-1.46-10.749-10.693-19.063-21.836-19.063h-11.95c-4.093-10.063-13.973-17.179-25.488-17.179h-222.305c-11.516 0-21.395 7.116-25.488 17.18h-11.95c-12.155 0-22.043 9.889-22.043 22.043v44.038c0 11.838 9.381 21.522 21.099 22.019v27.455c0 4.142 3.358 7.5 7.5 7.5s7.5-3.358 7.5-7.5v-23.292c4.856 7.82 13.519 13.041 23.382 13.041h70.75v66.641c0 5.931-4.825 10.755-10.756 10.755s-10.755-4.825-10.755-10.755v-11.396c0-13.375-10.881-24.255-24.255-24.255s-24.256 10.881-24.256 24.255v95.464c0 6.646-5.408 12.054-12.054 12.054-6.647 0-12.055-5.408-12.055-12.054v-108.495c0-4.142-3.358-7.5-7.5-7.5s-7.5 3.358-7.5 7.5v108.496c0 14.918 12.137 27.054 27.055 27.054s27.054-12.136 27.054-27.054v-95.464c0-5.104 4.152-9.255 9.256-9.255s9.255 4.152 9.255 9.255v11.396c0 14.202 11.554 25.755 25.755 25.755s25.756-11.554 25.756-25.755v-66.641h74.992c4.142 0 7.5-3.358 7.5-7.5s-3.358-7.5-7.5-7.5h-160.742c-6.896 0-12.506-5.61-12.506-12.507v-17.445l32.579-14.399c16.663-7.364 35.462-8.582 52.933-3.428l27.984 8.255c19.028 5.614 39.739 4.872 58.319-2.087 15.14-5.671 31.396-6.451 47.008-2.255l28.495 7.657v23.7c0 6.896-5.61 12.507-12.506 12.507h-29.602c-4.142 0-7.5 3.358-7.5 7.5s3.358 7.5 7.5 7.5h13.61v56.061h-69.246c-22.441 0-40.699 18.258-40.699 40.699v28.916h-21.237c-12.054 0-21.861 9.807-21.861 21.862v19.349c0 12.055 9.807 21.862 21.861 21.862h8.637v9.519c-10.026 9.881-15.726 23.426-15.726 37.573v110.729c0 23.265 18.053 42.379 40.884 44.105.008.001.017.001.025.002 1.103.083 2.213.139 3.337.139h18.265c24.397 0 44.246-19.849 44.246-44.246v-45.085c0-4.142-3.358-7.5-7.5-7.5s-7.5 3.358-7.5 7.5v45.085c0 16.126-13.12 29.246-29.246 29.246h-13.354v-73.375c0-4.142-3.358-7.5-7.5-7.5s-7.5 3.358-7.5 7.5v71.581c-11.17-4.118-19.157-14.869-19.157-27.451v-110.729c0-10.762 4.61-21.039 12.648-28.194l.564-.502c1.599-1.423 2.514-3.462 2.514-5.603v-12.793h19.844c4.142 0 7.5-3.358 7.5-7.5s-3.358-7.5-7.5-7.5h-27.344-16.137c-3.783 0-6.861-3.078-6.861-6.862v-19.349c0-3.784 3.078-6.862 6.861-6.862h92.58c3.784 0 6.862 3.078 6.862 6.862v19.349c0 3.784-3.078 6.862-6.862 6.862h-16.137c-4.142 0-7.5 3.358-7.5 7.5v20.293c0 2.141.915 4.179 2.514 5.603l.563.501c8.038 7.156 12.648 17.433 12.648 28.195v33.681c0 4.142 3.358 7.5 7.5 7.5s7.5-3.358 7.5-7.5v-33.681c0-14.146-5.7-27.691-15.726-37.573v-9.519h8.637c12.055 0 21.862-9.807 21.862-21.862v-19.349c0-12.055-9.807-21.862-21.862-21.862h-21.343v-19.615h59.945v28.571c0 14.437 11.745 26.182 26.182 26.182s26.182-11.745 26.182-26.182v-28.571h2.809c9.629 0 18.681-3.75 25.486-10.557l71.082-71.082c6.814-6.814 10.567-15.875 10.567-25.511v-49.074c.001-19.894-16.183-36.079-36.077-36.079zm-73.867 69.063h1.064c11.143 0 20.376-8.313 21.836-19.063h37.044v29.387l-59.945 59.945v-70.269zm8.108-66.082v44.038c0 3.884-3.16 7.043-7.043 7.043h-9.931v-58.124h9.931c3.884 0 7.043 3.159 7.043 7.043zm-311.266 44.038v-44.038c0-3.884 3.16-7.043 7.043-7.043h9.931v40.566.039 17.52h-9.931c-3.883 0-7.043-3.16-7.043-7.044zm254.69-34.127c-18.653-5.013-38.074-4.081-56.163 2.694-15.551 5.824-32.886 6.445-48.813 1.747l-27.984-8.255c-20.875-6.158-43.335-4.704-63.241 4.095l-26.515 11.719v-33.628c0-6.896 5.61-12.506 12.506-12.506h222.305c6.896 0 12.506 5.61 12.506 12.506v28.238zm11.105 73.35h.991c8.621 0 16.326-3.99 21.373-10.217v66.278h-22.364zm22.363 134.633c0 6.166-5.016 11.182-11.182 11.182s-11.182-5.016-11.182-11.182v-28.571h22.364zm109.945-135.721c0 5.63-2.192 10.923-6.174 14.905l-71.083 71.083c-3.973 3.974-9.257 6.163-14.879 6.163h-122.617c-4.142 0-7.5 3.358-7.5 7.5v26.115h-20v-27.916c0-14.17 11.529-25.699 25.699-25.699h121.744c1.989 0 3.897-.79 5.303-2.197l67.31-67.31c1.407-1.406 2.197-3.314 2.197-5.303v-39.995c0-4.142-3.358-7.5-7.5-7.5h-44.337v-20h50.758c11.623 0 21.079 9.456 21.079 21.079z"/><path d="m90.751 325.279c-14.918 0-27.055 12.136-27.055 27.054v23.892c0 14.918 12.137 27.054 27.055 27.054s27.054-12.136 27.054-27.054v-23.892c.001-14.917-12.136-27.054-27.054-27.054zm12.055 50.946c0 6.646-5.408 12.054-12.054 12.054-6.647 0-12.055-5.408-12.055-12.054v-23.892c0-6.646 5.408-12.054 12.055-12.054 6.646 0 12.054 5.408 12.054 12.054z"/></g></g></svg>