<svg height="433pt" viewBox="0 -24 433.06 433" width="433pt" xmlns="http://www.w3.org/2000/svg"><path d="m.015625.0429688h433.035156v169.3984372h-433.035156zm0 0" fill="#f9ad6a"/><path d="m404.550781.0390625h28.503907v169.3984375h-28.503907zm0 0" fill="#ea8c46"/><path d="m69.796875 6.605469c15.316406 5.96875 29.890625 13.683593 43.4375 22.992187 18.125 11.667969 34.246094 22.042969 59.796875 22.042969 6.5625-.035156 13.109375-.640625 19.570312-1.804687 27.785157-4.851563 48.914063-15.5625 67.550782-25.015626 18.800781-9.539062 35.0625-17.777343 53.601562-17.777343v-7.0000002h-33.539062c-8.851563 3.4492192-17.515625 7.7929692-26.398438 12.2968752-18.632812 9.445312-37.894531 19.199218-63.625 23.703125-32.34375 5.648437-47.867187-4.367188-69.378906-18.21875-9.851562-6.585938-20.121094-12.523438-30.742188-17.7812502h-17.847656zm0 0" fill="#ea8c46"/><path d="m134.9375 5.257812c13.082031 10.953126 28.300781 19.066407 44.6875 23.828126l3.640625-13.519532c-11.5625-3.453125-22.507813-8.695312-32.445313-15.535156h-11.226562zm0 0" fill="#ea8c46"/><path d="m218.488281 145.152344c-40.398437-11.726563-150.144531-23.433594-218.472656 16.175781v8.109375h14.441406c66.207031-33.109375 168.4375-20.035156 200.132813-10.839844 41.300781 12 138.085937 17.027344 195.71875-2.355468l-4.460938-13.269532c-54.261718 18.253906-148.707031 13.402344-187.359375 2.179688zm0 0" fill="#ea8c46"/><path d="m.015625 27.246094.363281 6.976562c26.820313-1.410156 50.558594 11.003906 75.664063 24.132813 25.628906 13.394531 52.128906 27.246093 84.964843 28.757812 1.914063.089844 3.828126.132813 5.738282.132813 35.601562 0 70.945312-14.875 102.300781-28.085938 24.617187-10.367187 47.867187-20.15625 67.015625-21.019531 22.800781-.996094 42.46875 6.402344 59.84375 12.921875 13.144531 4.945312 25.5625 9.597656 37.148438 9.597656v-13.972656c-9.042969 0-19.78125-4.042969-32.21875-8.722656-17.710938-6.664063-39.730469-14.972656-65.402344-13.804688-21.648438.972656-46 11.238282-71.820313 22.105469-33.203125 14-67.558593 28.480469-101.957031 26.867187-29.75-1.371093-54.847656-14.496093-79.128906-27.199218-25.566406-13.355469-51.992188-27.148438-82.511719-25.699219zm0 0" fill="#ea8c46"/><path d="m96.03125 96.484375.625-14c-28.949219-1.289063-65.578125-5.675781-92.09375-28.332031l-4.546875-4.785156v19.066406c29.171875 22.253906 66.386719 26.730468 96.015625 28.050781zm0 0" fill="#ea8c46"/><path d="m278.085938 65.585938 3.128906 13.644531c31.027344-7.121094 75.757812-14.464844 105.941406 3.855469l7.265625-11.964844c-34.53125-20.96875-82.925781-13.199219-116.335937-5.535156zm0 0" fill="#ea8c46"/><path d="m431.265625 88.945312c-62 16.433594-223.964844.703126-225.601563.542969l-1.375 13.933594c4.371094.433594 72.621094 7.058594 137.722657 7.058594 34.609375 0 68.300781-1.886719 91.039062-7.5625v-7.199219zm0 0" fill="#ea8c46"/><path d="m433.054688 124.351562-1.199219-6.898437c-.914063.164063-92.90625 15.570313-178.363281 1.324219-92.90625-15.484375-167.867188-20.300782-253.492188 3.316406v14.890625l1.882812-.914063c84.292969-23.601562 155.25-19.152343 249.300782-3.480468 27.355468 4.355468 55.019531 6.46875 82.71875 6.316406 33.1875.019531 66.324218-2.472656 99.132812-7.453125zm0 0" fill="#ea8c46"/><path d="m.015625 215.132812h433.035156v169.402344h-433.035156zm0 0" fill="#d36c4f"/><g fill="#c1573e"><path d="m404.550781 215.132812h28.503907v169.402344h-28.503907zm0 0"/><path d="m175.734375 335.636719c-41.070313 10.378906-88.796875 18.667969-131.246094 1.5l-5.25 12.980469c19.179688 7.503906 39.628907 11.214843 60.21875 10.929687 26.953125-.664063 53.726563-4.636719 79.710938-11.832031zm0 0"/><path d="m5.636719 343.925781c-1.417969-1.847656-5.621094-7.417969-5.621094-7.417969v21.734376c7.664063 7.082031 23.714844 18.800781 51.601563 26.292968h114.828124c23.902344-4.949218 49.65625-11.953125 76.214844-19.199218 61.34375-16.722657 130.886719-35.671876 189.871094-31.265626l.523438-6.972656v-7.011718c-61.324219-4.449219-131.816407 14.773437-194.074219 31.742187-48.484375 13.203125-94.285157 25.703125-129.441407 25.703125-77.335937.003906-103.671874-33.308594-103.902343-33.605469zm0 0"/><path d="m433.054688 345.519531c-59.175782-4.292969-133.882813 31.199219-137.046876 32.699219l3.027344 6.3125h17.554688c24.464844-10.023438 75.242187-28.152344 115.929687-25.019531l.535157-6.972657zm0 0"/><path d="m283.085938 312.386719c-27.261719 4.015625-54.269532 9.589843-80.894532 16.699219l3.710938 13.5c26.03125-6.945313 52.433594-12.394532 79.085937-16.316407zm0 0"/><path d="m155.734375 280.796875c34.753906-1.238281 70.691406-2.519531 102.488281-2.519531v-13.992188c-32.050781 0-68.109375 1.285156-102.988281 2.527344-55.464844 1.976562-112.824219 4.023438-154.710937.90625l-.507813 6.96875v7.023438c15.847656 1.160156 33.742187 1.597656 52.851563 1.597656 32.261718.003906 67.941406-1.265625 102.867187-2.511719zm0 0"/><path d="m207.457031 298.285156c-79.898437 12-155.371093 23.332032-204.703125 2.363282l-2.738281-.820313v14.753906c21.347656 8.503907 46.429687 11.742188 74.121094 11.738281 40.898437 0 87.375-6.976562 135.40625-14.191406 77.082031-11.574218 156.800781-23.542968 221.917969-8.222656l1.597656-6.800781v-7.160157c-67.425782-15.375-147.820313-3.339843-225.601563 8.339844zm0 0"/><path d="m433.054688 270.175781-1.441407-6.851562c-13.226562 2.800781-42.566406 2.429687-42.859375 2.425781l-.191406 14c.257812 0 1.734375.019531 4.039062.019531 13.527344.179688 27.050782-.644531 40.453126-2.472656zm0 0"/><path d="m430.804688 241.519531c-38.929688 13.199219-103.34375 6.1875-171.535157-1.246093-84.332031-9.1875-179.773437-19.539063-259.253906 2.75v7.230468l1.9375 6.722656c77.199219-22.238281 172.082031-11.902343 255.800781-2.796874 42.109375 4.585937 80.902344 8.796874 114.226563 8.796874 20.621093.5625 41.207031-1.980468 61.070312-7.542968v-7.292969zm0 0"/><path d="m288.390625 220.375c17.46875 15.472656 42.632813 23.199219 68.078125 23.199219 25.351562 0 50.972656-7.6875 69.5-23.0625l-4.46875-5.390625h-12c-30.148438 19.132812-76.398438 19.152344-104.941406 0h-11.527344zm0 0"/></g></svg>